<svg xmlns="http://www.w3.org/2000/svg" width="157" height="55" viewBox="0 0 157 55"><rect width="100%" height="100%" fill="#DDDDDD"/><path fill="#999999" d="M30.915 26.445v3.22q.29.35.64.5.34.15.73.15.4 0 .72-.14.31-.15.54-.45.22-.31.34-.78.12-.47.12-1.13 0-1.18-.39-1.71t-1.13-.53q-.5 0-.87.23-.37.22-.7.64Zm0-5.32v4.1q.43-.45.96-.72.53-.27 1.21-.27.62 0 1.12.24.5.25.85.7.36.46.55 1.11.19.66.19 1.47 0 .87-.22 1.59-.22.71-.62 1.22-.4.5-.97.78t-1.26.28q-.34 0-.61-.06-.27-.07-.5-.19-.23-.12-.43-.29-.19-.17-.36-.38l-.08.48q-.04.19-.14.26-.11.08-.28.08h-1.14v-10.4h1.73Zm7.58 5.98h3.26q0-.33-.09-.63-.1-.3-.29-.52-.19-.23-.48-.36-.29-.12-.67-.12-.75 0-1.18.42-.43.43-.55 1.21Zm4.41 1.05h-4.45q.04.55.2.95.15.4.4.67.26.26.6.39.35.13.77.13.42 0 .72-.1.31-.1.54-.22.22-.12.4-.21.17-.1.33-.1.21 0 .32.16l.5.63q-.29.34-.65.56-.35.23-.74.37-.39.13-.79.19-.41.05-.78.05-.75 0-1.4-.24-.64-.25-1.12-.74-.47-.48-.75-1.2-.27-.72-.27-1.67 0-.73.24-1.38.24-.65.68-1.12.45-.48 1.09-.76.64-.28 1.44-.28.68 0 1.25.21.58.22.99.64.41.41.65 1.02.23.6.23 1.38 0 .39-.08.53t-.32.14Zm5.49 1.52v-1.22q-.75.04-1.26.13-.51.1-.82.25-.3.14-.44.34-.13.19-.13.42 0 .46.27.66.27.19.7.19.53 0 .92-.19t.76-.58Zm-3.65-3.78-.31-.55q1.24-1.14 2.98-1.14.63 0 1.13.21.5.21.84.58.34.36.52.87t.18 1.12v4.54h-.78q-.25 0-.38-.07-.14-.08-.21-.3l-.16-.52q-.27.25-.53.43-.26.19-.54.31-.28.13-.6.2-.31.06-.7.06-.45 0-.84-.12-.38-.12-.66-.37-.28-.24-.44-.61-.15-.36-.15-.84 0-.28.09-.55t.3-.51q.2-.25.53-.46.33-.22.81-.38.48-.16 1.12-.26.63-.1 1.45-.13v-.42q0-.72-.31-1.06-.3-.35-.88-.35-.42 0-.7.1-.28.1-.49.22-.21.12-.38.22t-.38.1q-.18 0-.31-.1-.12-.09-.2-.22Zm11.42-1.55h1.73v7.18h-1.06q-.34 0-.43-.32l-.12-.57q-.44.45-.97.73-.53.27-1.25.27-.59 0-1.04-.2-.46-.2-.76-.56-.31-.37-.47-.87-.16-.5-.16-1.1v-4.56h1.73v4.56q0 .66.31 1.02.3.36.91.36.45 0 .84-.2.39-.2.74-.55v-5.19Zm5.83 7.29q-.93 0-1.43-.53-.51-.53-.51-1.46v-4.01h-.73q-.14 0-.24-.09-.1-.09-.1-.27v-.69l1.16-.19.36-1.96q.04-.14.14-.21.09-.08.25-.08h.89v2.26h1.92v1.23h-1.92v3.89q0 .34.17.53.16.19.45.19.16 0 .27-.04.11-.04.19-.08t.14-.08q.06-.04.13-.04t.12.04q.05.04.11.12l.52.83q-.38.32-.87.48-.49.16-1.02.16Zm7.96-7.29h1.38l-3.91 9.15q-.08.19-.2.28-.12.1-.38.1h-1.28l1.34-2.89-2.9-6.64h1.51q.21 0 .32.1.12.09.17.22l1.53 3.72q.08.19.13.38t.1.39q.06-.2.13-.39.06-.19.14-.38l1.44-3.72q.06-.14.19-.23.12-.09.29-.09Zm7.37 2.1v3.22q.3.35.64.5.35.15.74.15t.71-.14q.32-.15.55-.45.22-.31.34-.78.12-.47.12-1.13 0-1.18-.39-1.71-.4-.53-1.13-.53-.5 0-.87.23-.37.22-.71.64Zm0-5.32v4.1q.44-.45.97-.72.52-.27 1.2-.27.63 0 1.13.24.5.25.85.7.35.46.54 1.11.19.66.19 1.47 0 .87-.21 1.59-.22.71-.62 1.22-.41.5-.97.78-.57.28-1.26.28-.34 0-.61-.06-.28-.07-.51-.19-.23-.12-.42-.29-.19-.17-.37-.38l-.07.48q-.05.19-.15.26-.1.08-.27.08h-1.15v-10.4h1.73Zm11.36 3.22h1.38l-3.91 9.15q-.08.19-.2.28-.12.1-.37.1h-1.29l1.34-2.89-2.9-6.64h1.52q.2 0 .32.1.11.09.17.22l1.52 3.72q.08.19.13.38t.1.39q.07-.2.13-.39t.14-.38l1.44-3.72q.06-.14.19-.23t.29-.09Zm9.44 5.33v-1.22q-.75.04-1.26.13-.51.1-.82.25-.31.14-.44.34-.13.19-.13.42 0 .46.27.66.27.19.7.19.53 0 .92-.19t.76-.58Zm-3.65-3.78-.31-.55q1.24-1.14 2.98-1.14.63 0 1.13.21.49.21.84.58.34.36.52.87t.18 1.12v4.54h-.79q-.24 0-.37-.07-.14-.08-.21-.3l-.16-.52q-.27.25-.53.43-.26.19-.54.31-.28.13-.6.2-.32.06-.7.06-.46 0-.84-.12-.39-.12-.67-.37-.28-.24-.43-.61-.15-.36-.15-.84 0-.28.09-.55t.29-.51q.21-.25.54-.46.33-.22.81-.38.48-.16 1.11-.26.64-.1 1.46-.13v-.42q0-.72-.31-1.06-.31-.35-.89-.35-.42 0-.69.1-.28.1-.49.22-.21.12-.38.22t-.38.1q-.18 0-.31-.1-.13-.09-.2-.22Zm11.74-.78-.4.63q-.07.11-.14.16-.08.04-.2.04-.13 0-.27-.07t-.33-.16q-.19-.08-.43-.15-.24-.07-.57-.07-.51 0-.8.21-.29.22-.29.57 0 .23.15.39t.4.28q.24.11.56.21.31.09.64.2.32.12.64.26.31.14.56.36.25.22.4.53.15.31.15.75 0 .51-.18.95-.19.44-.55.76-.37.32-.9.49-.54.18-1.24.18-.37 0-.72-.06-.36-.07-.68-.19-.33-.12-.6-.28-.28-.16-.49-.35l.4-.66q.08-.12.18-.18.11-.06.27-.06.16 0 .3.09.15.09.33.19.19.11.45.2.25.09.65.09.3 0 .53-.07.22-.08.36-.19.14-.12.21-.28.07-.16.07-.33 0-.25-.15-.41-.16-.16-.4-.28-.25-.12-.57-.21-.32-.1-.65-.21-.33-.11-.65-.26-.32-.15-.57-.38-.25-.24-.4-.57-.15-.34-.15-.81 0-.44.18-.84.17-.4.51-.7.34-.3.85-.48.5-.17 1.17-.17.74 0 1.35.24.61.25 1.02.64Zm3.1-3.99v3.99q.42-.39.93-.64.5-.24 1.18-.24.59 0 1.04.2.46.19.76.56.31.36.47.86.15.5.15 1.1v4.57h-1.73v-4.57q0-.66-.3-1.02t-.91-.36q-.45 0-.84.2-.4.21-.75.56v5.19h-1.73v-10.4h1.73Zm7.54 5.98h3.26q0-.33-.1-.63-.09-.3-.28-.52-.19-.23-.48-.36-.29-.12-.68-.12-.74 0-1.17.42-.44.43-.55 1.21Zm4.41 1.05h-4.45q.04.55.2.95.15.4.4.67.26.26.6.39.35.13.77.13.42 0 .72-.1.31-.1.53-.22l.4-.21q.17-.1.34-.1.21 0 .32.16l.49.63q-.28.34-.64.56-.36.23-.74.37-.39.13-.8.19-.4.05-.78.05-.75 0-1.39-.24-.64-.25-1.12-.74-.48-.48-.75-1.2t-.27-1.67q0-.73.24-1.38.23-.65.68-1.12.44-.48 1.08-.76.64-.28 1.45-.28.68 0 1.25.21.58.22.99.64.41.41.65 1.02.23.6.23 1.38 0 .39-.08.53-.09.14-.32.14Zm6.47-3.04-.39.63q-.07.11-.15.16-.08.04-.19.04-.13 0-.27-.07l-.34-.16q-.19-.08-.43-.15-.24-.07-.57-.07-.51 0-.8.21-.29.22-.29.57 0 .23.15.39t.4.28q.25.11.56.21.32.09.64.2.33.12.64.26.32.14.57.36.25.22.4.53.15.31.15.75 0 .51-.19.95-.18.44-.55.76-.36.32-.9.49-.53.18-1.23.18-.37 0-.73-.06-.35-.07-.68-.19-.32-.12-.6-.28-.27-.16-.48-.35l.39-.66q.08-.12.19-.18.1-.06.26-.06t.31.09q.14.09.33.19.19.11.44.2.26.09.65.09.31 0 .53-.07.22-.08.36-.19.15-.12.21-.28.07-.16.07-.33 0-.25-.15-.41-.15-.16-.4-.28-.25-.12-.57-.21l-.65-.21q-.33-.11-.65-.26-.32-.15-.56-.38-.25-.24-.4-.57-.15-.34-.15-.81 0-.44.17-.84.18-.4.52-.7.33-.3.84-.48.51-.17 1.17-.17.75 0 1.36.24.6.25 1.01.64Z"/></svg>